# xmcd
#
# Track frame offsets:
#	150
#	16517
#	40027
#	64220
#	94137
#	110960
#	139785
#	161495
#	173320
#	194635
#	225662
#	242552
#
# Disc length: 3576 seconds
#
# Revision: 1
# Processed by: cddbd v1.4PL0 Copyright (c) Steve Scherf et al.
# Submitted via: CDmax 1.8
#
DISCID=950df60c
DTITLE=Harry 'Big Daddy' Hypolite - Louisiana Country Boy
DYEAR=2001
DGENRE=Blues
TTITLE0=The Sun is Shining
TTITLE1=Milk Cow Blues
TTITLE2=Colinda
TTITLE3=Someday
TTITLE4=Wine Spodee-O-Dee
TTITLE5=For Better Or For Worse
TTITLE6=Just A Little Bit
TTITLE7=You Used To Call Me
TTITLE8=Hog For You Baby
TTITLE9=Louisiana Country Boy
TTITLE10=Big Bad Girl
TTITLE11=I'm Coming Home
EXTD=
EXTT0=
EXTT1=
EXTT2=
EXTT3=
EXTT4=
EXTT5=
EXTT6=
EXTT7=
EXTT8=
EXTT9=
EXTT10=
EXTT11=
PLAYORDER=
